<svg version="1" xmlns="http://www.w3.org/2000/svg" width="800" height="800" viewBox="0 0 600.000000 600.000000"><path d="M295 11.5c0 .8.4 1.5.9 1.5s1.4-.7 2.1-1.5c1-1.3.9-1.5-.9-1.5-1.2 0-2.1.6-2.1 1.5z"/><path d="M300.4 11.5c-1.6 1.3-1.7 1.6-.4 2.5 1.2.8 1.1 1-.7 1-1.2 0-2.5.4-2.8 1-.9 1.5-2.7 1.2-2-.3.4-.6 0-.4-.9.7-1.2 1.5-2 1.7-4.5.8-2.2-.8-3.1-.7-3.6.1-.3.7-.3.2-.1-1.1.3-1.6-.1-2.2-1.5-2.2-1 0-1.9-.5-1.9-1 0-.6.5-1 1.2-1 .6 0 .8-.3.5-.6-.4-.4-1.3-.2-2 .5-.8.6-2.7.9-4.3.7-1.6-.2-2.3-.1-1.6.1.6.2 1.2 1.1 1.2 2 0 1.4-.2 1.4-2.4 0-1.5-1-2.7-1.2-3.3-.6-.6.6-2.1 1.1-3.5 1.3-1.4.1-4.6 1.7-7.3 3.5-2.6 1.7-5 3-5.2 2.7-.3-.3-1.2.1-1.9.9-.7.7-3.1 1.6-5.3 2-2.4.4-4.8 1.7-6.3 3.3-1.2 1.5-3.2 2.9-4.3 3-1.1.2-2.4.8-2.9 1.3-.6.5-2.2.9-3.6.9-1.6 0-4.2 1.4-6.6 3.6-4.5 4.1-7.3 5.4-11.6 5.4-2.1 0-3.1.6-3.5 2-.3 1.1-.9 2-1.3 2-1 0-3.4 5.9-2.7 6.6.8.8-4.7 5.4-6.4 5.4-2.2 0-16.9 14.6-16.9 16.7 0 1.1-.3 2.3-.7 2.7-.5.4-.8 1.1-.8 1.4-.1.4-1.1 2.7-2.3 5.1-1.2 2.4-1.9 4.8-1.6 5.2.3.5 0 .9-.5.9-1.9 0-6.2 7.7-6.4 11.6-.2 2-.8 3.9-1.5 4.2-.7.2-1 .7-.7 1.2.3.4-.6 1.5-2 2.4-1.4.9-2.5 2.2-2.5 2.9 0 .6-.7 2.5-1.6 4.2-1 2-1.2 3.1-.4 3.3.8.3.7.8-.1 1.8-1.4 1.7-1.9 11.4-.6 11.4.6 0 .3.8-.5 1.7-.8 1-1.6 2.6-1.7 3.5 0 1-.1 2.4-.2 3 0 .7.2 2.3.5 3.5.3 1.4 0 2.3-.7 2.3-.9 0-.9.2-.1.8 1.4.9 2.5 11.8 2.9 28.4.1 6.8.8 14.1 1.4 16.3.6 2.2 1 6.1.9 8.6 0 3.3.7 5.7 2.6 8.7l2.6 4.1-4.4-.1c-3.1 0-5 .6-6.8 2.1-2.3 2-2.5 2.7-1.7 5.9.5 2 2.4 7.4 4.4 12 1.9 4.6 3.5 10 3.6 12 0 2 .4 4.6.8 5.7.8 1.9.8 1.9 1.9 0 .6-1.1 1.2-1.6 1.2-1 0 .5.5.3 1-.5.7-1.1.3-1.8-1.3-2.7-1.5-.8-1.7-1.2-.7-1.3.9 0 2.2-.9 2.9-1.9.8-1.1 2.3-1.8 3.4-1.5 2.3.4 3.6 1.4 1.9 1.4-.7 0-1.2.6-1.2 1.2 0 .7-1.3 2.7-2.8 4.3-1.6 1.7-2.8 3.8-2.6 4.8.2 1.4-.3 1.6-1.9 1.2-2-.6-2.1-.5-.3.6 1.4.8 1.5 1.3.6 1.9-.9.6-.7 1 .8 1.4 2.2.7 3.8 6.3 2.7 9.7-.4 1.1-.1 2.6.5 3.4 1.4 1.7 5.6 2 6.5.5 1.2-1.9 4.5-1 5.7 1.5 1.2 2.7 2.7 3.2 4.6 1.3.9-.9 1.2-.7 1.2 1 0 1.2-.6 2.2-1.2 2.2-.9 0-.9.3-.2.8 1.4 1 2.6 4.2 1.5 4.2-.5 0-1.1-.5-1.3-1-.2-.6-.9 0-1.7 1.2-1.3 2.1-1.3 2.2.2.9 1.4-1.1 1.7-1.1 2.1 0 .2.8.9 2.8 1.4 4.4 1.3 4.3 0 7.1-3.9 7.9l-3.2.6 2.3 2c2.5 2.2 7 2.7 7 .8 0-.6.6-.3 1.4.8.9 1.2 1.1 2.3.5 3-.6.8-.6 1.3 0 1.6.6.1 1.3 2.5 1.6 5.2.2 2.7 1 5.3 1.6 5.7.6.4.8 1.2.5 1.8-.4.6-.3 1.1.1 1.1.5 0 .9.9 1 2 .1 1.1 1.4 4.6 2.8 7.8 2.5 5.3 2.6 6.4 2.1 15.2-1.3 19.8-1.9 25.2-2.6 24-1.3-2.1-6 5.4-8 12.7-.9 3.7-2.9 10.1-4.4 14-1.4 4-2.6 8.3-2.6 9.5 0 1.3-2.6 7.5-5.7 13.9l-5.8 11.6-9 3.8C137.9 445.7 99 466.1 74 481.8 53.7 494.6 44.9 500 44.2 500c-.4 0-5.4 2.8-11.2 6.1-5.8 3.4-14.9 8.4-20.2 11.1l-9.8 5V600h595v-49.5l-7.3-7c-4-3.9-10.1-9.3-13.6-12-3.4-2.8-7-5.7-7.9-6.5-.8-.8-3.6-2.9-6.2-4.5-2.6-1.7-7.4-4.8-10.7-7-3.3-2.2-7.9-5.1-10.1-6.5-2.3-1.4-13.6-8.7-25.1-16.2-30.6-20.1-59-35.4-92.6-49.8l-20-8.6-1.2-6.5c-.6-3.5-2.2-11.8-3.4-18.4-2.2-12.1-4.4-19.6-7.2-24.9-1.5-2.7-1.5-2.3-1.9 8.7-.3 11.3-.4 11.6-4.5 19.5-5.4 10.3-11.1 19.2-12.3 19.2-1.1 0-4.1 5.5-3.4 6.2.2.3-.7 1.3-2.1 2.2-1.4.9-2.5 2.3-2.5 3 0 .8-1.5 2.7-3.3 4.3-1.8 1.6-3.2 3.4-3 4 .2.6-.6 1.3-1.8 1.6-1.1.3-1.8 1-1.5 1.5.3.5-1.6 2.4-4.2 4.3-2.6 1.8-5 3.7-5.3 4.2-.3.5-1 .8-1.5.8-1.6-.1-6.4 2.4-6.4 3.3 0 .4-.7.6-1.5.2-.8-.3-2.2.3-3.1 1.2-1.8 1.7-2.1 1.8-5.1 2.1-1.6.1-1.6.3-.3 1.1 1.2.8.9 1-1.2 1-1.5 0-3.3.7-4.2 1.5-.8.8-1.9 1.5-2.5 1.5-.6 0-3.3 1.1-6 2.5-5 2.7-10.7 3-11.5.8-.3-.7-1.1-1.3-1.9-1.3-.7 0-3-2-5-4.5-2.1-2.5-3.3-4.5-2.8-4.5.6 0 .9-1.3.7-2.9-.2-2 .1-2.8.9-2.5.8.3 1-.5.7-2.7-.3-2.2-.1-3 .7-2.5.7.5.9.1.5-.8-.4-1.1 0-1.6 1.5-1.6 1.2 0 2.1-.5 2.1-1 0-.6 1.1-1 2.4-1 1.8 0 2.3-.5 2.2-2.3 0-1.2-1-2.7-2-3.3-1.9-1.1-3.2-4.4-1.8-4.4.4 0 .7-1.6.8-3.5 0-1.9-.3-3.5-.8-3.5s-.6-.5-.3-1c.3-.6 1.7-1 2.9-1 1.3 0 2.9-.7 3.6-1.5.7-.8 1.6-1.3 2-1 .4.3 1-.1 1.3-.9.3-.7 1.9-1.6 3.5-1.9 1.6-.3 3.6-1.2 4.3-1.9 2.5-2.4 7.4-5.6 9.4-6.1 1.6-.4 1.6-.5.3-.6-1.2-.1-1.5-.6-1.1-1.9.6-1.4.4-1.5-.9-.4-1.2.9-1.8 1-2.3.2-.4-.6-1.4-.9-2.2-.6-.9.4-2.3.1-3.1-.6-1.1-.9-1.3-.9-.9-.1 1 1.6-2.2 2.5-9.7 2.7-4.8.2-6.4-.1-7.3-1.5-.8-1.1-2.1-1.5-3.4-1.2-1.2.4-3.2-.3-4.9-1.6-1.6-1.1-3.6-2.1-4.5-2.1-.9 0-1.8-.7-2.2-1.6-.4-1.1-1.4-1.4-3.4-1-2.2.4-3.1.1-3.9-1.4-.9-1.7-.8-1.9.7-1.3 1.7.5 1.7.5.1-1.2-.9-1-3.1-1.9-5-2.1-7.8-.8-12.7-2.4-12-3.8.1-.3 0-.5-.2-.4-.8.6-4.6-3.6-4.6-4.9 0-.8-.5-1.1-1-.8-.5.3-1 0-1-.7-.1-.7-1.5-2.4-3.2-3.8-5-4-8.8-8.3-8.8-10 0-.5-.6-1-1.4-1-.8 0-2.1-.9-2.9-2-.8-1.1-1.6-1.7-1.9-1.4-.4.3-.9-.4-1.3-1.5-.3-1.2-1.4-2.1-2.3-2.2-1.4 0-1.3-.2.3-.9 1.1-.5 1.5-.9.9-.9-1.7-.1-6.6-8-5.8-9.3.4-.7.3-.8-.5-.4-1.1.7-5-2.9-5.1-4.9-.1-1.4-3.6-5.5-4.8-5.5-.5 0-1.5-1.4-2.2-3.1-.7-1.7-2.8-4.6-4.6-6.5-1.9-1.9-3-3.4-2.6-3.4.4 0-.2-.7-1.2-1.5-1.1-.8-1.7-1.8-1.3-2.1 1.1-1.1-1.3-4.5-2.6-3.8-.9.5-.9.4 0-.6 1-1.1.9-1.6-.4-2.5-1.2-.9-1.6-2.7-1.6-5.9.1-3.2-.4-4.9-1.3-5.3-1.7-.6-1.9-6.9-.3-7.8.6-.4.8-1.4.5-2.2-.4-.9-.2-1.1.6-.7.8.5.9.2.5-.9-.3-.9-.1-1.9.5-2.3.7-.4.6-.9-.3-1.5-1.1-.7-1-.9.4-.9 1 0 1.5-.5 1.2-1-.9-1.5.9-1.2 3.1.6 1 .8 1.3 1.2.5.8-.9-.5-1.2-.3-.7.4.9 1.5 3.6 1.6 3.6.1 0-.5.5-.7 1-.4.6.3 1 .1 1-.4 0-.6.8-1.1 1.8-1.1 1.3 0 1.4-.2.4-.9-1-.6-.8-1 .9-1.4 1.9-.5 2.1-.9 1.1-1.9-.6-.6-1.2-1.7-1.2-2.2 0-.6.4-.5.9.3.6.9 1.1 1 1.5.2.4-.6.2-1.1-.4-1.1-.6 0-.9-.4-.6-.9.4-.5-.2-.7-1.1-.5-1 .3-2.7-.2-3.8-1.1-1.1-.9-1.4-1.4-.7-1 1.7.9 1.5-1-.3-2.5-.8-.7-1.5-1.9-1.5-2.6 0-.8-.4-1.4-.8-1.4-.5 0-.7-1.8-.6-4 .2-4.1-1.2-6.3-2.2-3.6-.8 2-3 2.1-3.8.1-.3-.8-1.1-1.5-1.8-1.5-.9 0-.9.3.2 1.1 1.2.9 1.2 1-.3.5-1-.3-2.5-.6-3.3-.6-1.7 0-1.9-3.7-.1-4.3.6-.2.9-.7.6-1.1-.4-.4-1.9.5-3.3 2.1-2.2 2.4-2.8 2.6-3.6 1.3-1.4-2.2-1.2-3.3.4-2.7.8.3 2.4-.4 3.6-1.5 2-1.9 2.1-2.3.7-3.3-.8-.6-1.5-2.4-1.4-4.1.3-8.1-.3-12.3-1.7-11.8-.8.3-1.2 1.2-1 1.9.3.7.1 1.5-.3 1.8-.5.3-1-.3-1-1.4-.2-1.8 3.3-4.6 5-4.1.5.1.5-.8.2-2-.6-2-.2-1.8 3.1 1.3 5 4.8 9.1 6.7 17.1 8.4 3.7.8 7.3 2 8 2.8 1.1 1.1 3.6 1.3 11.1.9 9.4-.5 17.9-2.1 31.1-6.1 1.9-.6 3.6-.9 3.9-.7.5.6-2.1 4.6-3 4.6-.5 0-.8.9-.8 2s-.7 2-1.6 2c-.8 0-1.2.4-.9 1 .3.5.1 1-.5 1s-3.3 2.2-6 4.9-5.3 5.1-5.7 5.2c-1 .4-5.8 8-5.8 9.2 0 .9-8.7 8.7-9.8 8.7-.4 0-2.6 1.8-4.8 4.1-3.2 3.3-3.8 4.4-2.8 5.5.7.9.8 1.4.1 1.4-.7 0-.6 1 .1 3l1.2 3.1.8-2.6c.5-1.5 1.6-2.5 2.7-2.5 2.2 0 3.5 1.6 2 2.5-1.5.9-1.2 3.5.4 3.5.7 0 1.6 1 1.9 2.1.4 1.4 1.1 2 2.1 1.6.9-.4 1.5-.3 1.5.1-.3 1.9.4 3.1 3.5 6.4 1.9 2 3.9 5.3 4.5 7.3.5 2 2.8 5.5 5.1 7.7 2.2 2.3 6.2 7.2 8.7 11 2.5 3.7 5.2 6.8 5.9 6.8.8 0 1.4 1 1.4 2.2 0 1.8.2 2 .9.9.8-1.2 1.1-.9 1.6 1.2.6 2.1 1 2.5 2 1.7.9-.7 1.4-.8 1.7 0 .1.5 1.8 1.4 3.6 1.9 2 .6 3 .6 2.7 0-.4-.6 2.4-.7 7.2-.3 5.6.4 7.4.2 6.3-.5-1.3-1-1.3-1.1 0-1.2 7-.6 21.1-2.8 22.1-3.5 1.5-.9 1-2-.8-2.1-12.8-.8-18.1-.8-17.5.2.3.5-.1.5-.9-.2-.8-.6-3.8-1.5-6.8-1.9-5.5-.7-6.9-2.1-5.3-5 1-1.9 7.9-2.6 8.6-.9.3.7.7.7 1.3 0 .4-.6 2.6-1.1 4.8-1.2 8.8-.4 12.7-1.5 15.2-4.1 1.6-1.7 2.2-2 1.7-.8-.7 1.8-.6 1.8 2.2 0 1.6-1 4.1-2.8 5.5-3.9 1.5-1.2 4-2.7 5.8-3.4 1.7-.8 2.8-1.7 2.6-2.2-.6-.9 4.6-3.9 7-3.9.8 0 1.5-.4 1.5-.8 0-1.2 5-3.3 6.1-2.7.5.4.9.1.9-.5 0-.7.6-1 1.4-.7 1.8.7 3.6-1.2 3.6-3.9 0-3-1.4-3.3-10.6-2.6-4.3.4-11.5.6-15.9.5-7.3-.1-10-.4-16.2-1.8-1.2-.3-2.4-.1-2.8.4-.3.6-1.5.8-2.6.6-1.1-.2-3 0-4.3.5-1.7.6-4.5.1-10.4-2-7.6-2.6-16.8-4-29.3-4.4-2.5 0-5.3-.7-6.1-1.3-.8-.7-1.7-1.2-1.9-1-.2.1-.1-.2.4-.8.5-.6 1.1-.4 1.7.5.8 1.3 1 1.2 1-.3 0-1.4.5-1.7 1.9-1.2 1.1.3 2.2.1 2.6-.5.3-.6 1.2-.7 1.8-.3.7.4.6 0-.2-1-1.1-1.4-1.1-1.7.1-1.7.8 0 1.9.5 2.4 1 .6.6 2.1 1.2 3.3 1.5 1.7.3 2.1 0 1.7-1.1-.4-1.1-.1-1.2 1.2-.6.9.5 3.6 1.2 6 1.6 3.2.5 4.2.3 4.2-.8 0-.8.7-1.6 1.5-2 .8-.3 1.5-.1 1.5.5 0 .5 1.1.2 2.5-.7 2.5-1.7 6.6-1.9 15.2-1.1 2.3.2 4.5.1 5-.2 1.1-.8 1-3.4-.2-4.4-.6-.4-.3-1.3.9-2.2 1.8-1.4 1.6-1.5-2.8-1.5-4.7 0-4.8 0-4.1-2.8.6-2.6.6-2.6-.9-.7-1.4 2-1.5 2-4.5-.9-1.7-1.7-3.1-3.6-3.1-4.3 0-.7-.4-1.3-1-1.3-.5 0-1-1.1-1-2.4 0-2.1-.8-2.7-5.2-4.1-2.9-.9-5.9-1.9-6.7-2.2-.9-.4-1.1-.1-.6.7.6 1-.1 1.1-3.1.6-7-1.4-8.2-6.1-3.4-13.3 3.5-5.1 3.6-6 1.3-8.5-1.6-1.8-1.4-2.1 3.3-7.1 2.7-2.8 5.3-5.4 5.7-5.8.4-.3.7-1.2.5-2-.2-.8.3-1.3 1-1.1.9.2 1.1-.4.7-1.8-.8-2.5.3-2.6 2.2-.3.8 1 1.2 1.3.9.7-.3-.7 0-2.4.8-3.9.9-1.8 1.2-4.5.9-8.4-1-10.3 4.3-22.1 9.9-22.1 2.9 0 6.7 4.7 10.5 13 7 15.2 13.6 27.6 15.7 29.3 3.4 2.9 11.8 6.6 17.6 7.7 3.8.7 8.6.7 16-.1 35.7-3.8 43.6-8.8 49.7-31.9.9-3.4 1-3.4 1.8 2.9.7 6.2.8 6.4 2.1 3.9.7-1.4 1.6-6.3 2-10.9.4-4.6 1.3-9.2 2-10.3.9-1.2 1-2.6.4-4.2-.7-1.7-.6-2.4.3-2.4.9 0 .9-.2-.1-.8-2.1-1.4-3.2-6.9-1.7-8.2.9-.7 1.5-3.7 1.7-7.3.3-6.1.3-6 1.8 4.7 1.3 10.2 1.5 10.7 2.7 8 1.7-4.1 1.6-22.8-.3-32.1-.8-4.3-2-10.3-2.6-13.3-.5-3-1.4-6.5-1.9-7.8-.5-1.4-.5-2.2.2-2.2.6 0 .8-.4.5-.8-.5-.8-1.2-3.8-2.1-9.2-.3-1.4-.6-3.4-.9-4.5-.2-1.1.1-2.6.7-3.3.7-.8.7-1.6.1-2-.5-.4-1.5-1.7-2.2-3-1-1.8-1-2.7-.1-3.8.9-1.1.9-1.7-.1-2.9-.7-.9-1-1.8-.7-2.1.3-.4-1.1-2.3-3.3-4.3-2.9-2.7-3.6-4-3-5.2 1-1.7.2-5.9-1.1-5.9-.4 0-1.8-1.8-3-4-1.3-2.2-2.9-4-3.6-4-.7 0-1.3-.6-1.3-1.4 0-2.2-4.7-7.3-9.1-9.8-4.7-2.6-7.3-6.3-7.2-10 0-1.5-.4-2.5-.8-2.2-.5.3-.9.2-1-.3 0-.4-.2-2.3-.4-4.1-.2-1.8-.8-3.9-1.4-4.6-.6-.7-.7-1.6-.3-2 .4-.4.2-.6-.5-.4-1.3.3-8.8-6.5-10.5-9.5-.8-1.5-.7-1.8.4-1.1 1.4.9.1-1.1-3.7-5.4-3.1-3.5-13.2-10.2-15.4-10.2-1.1 0-2.2-.4-2.6-1-.5-.9-1.4-.8-5.2.6-1 .4-3.3.8-5.2 1-4.1.4-5.4 1.4-2 1.5 2.2.1 2.1.2-.6 1-1.8.5-3.3.5-3.9-.1-.7-.7-.6-1 .3-1 .7 0 .9-.5.6-1-.4-.6.7-1 2.5-1s2.9-.4 2.5-1c-.3-.6 0-1 .7-1 .7-.1-.2-.7-2.1-1.5-3.1-1.4-5.7-1.2-4.7.3.2.4-.9.7-2.4.7s-2.6-.3-2.4-.6c.7-1.2-2.5-1.9-5.6-1.2-2 .3-3 .1-3-.6s-.4-.9-1-.6c-.5.3-1 .1-1-.6 0-.8-1.2-.9-3.7-.5-2.8.5-3.4.4-2.3-.3 1.2-.8.8-1.1-1.6-1.1-1.6 0-3.9.7-5 1.5zM280 16.9c0 .6-.4 1.3-1 1.6-.5.3-1-.1-1-.9 0-.9.5-1.6 1-1.6.6 0 1 .4 1 .9zm29 .3c0 1-8.1 5.1-8.7 4.4-.4-.3.9-1.2 2.8-2 5-2.2.8-1.9-5.1.3-5.7 2.2-6.9 1.8-1.5-.5 1.9-.8 3.5-1.8 3.5-2.2 0-.4 2-.7 4.5-.7s4.5.3 4.5.7zm15 .9c1.3.7 1.2.8-.2.9-1 0-1.8.5-1.8 1.1 0 .6-.7.9-1.5.5-.9-.3-1.5 0-1.5.9 0 1.4-3.7 3.1-4.7 2.1-.4-.3.1-.6 1-.6 1 0 1.7-.5 1.7-1 0-.6-.9-1-2-1-2.7 0-2.5-2.4.3-3.8 2.2-1 5.9-.7 8.7.9zM287.5 20c-2.8 1.2-3.7 1.2-3 0 .3-.6 1.6-1 2.8-.9 2.1 0 2.1.1.2.9zm24.5 2c0 .5-.2 1-.4 1-.3 0-.8-.5-1.1-1-.3-.6-.1-1 .4-1 .6 0 1.1.4 1.1 1zm-26.1.5c-.9.9-7.9 3.5-7.9 3 0-.3 1.5-1.2 3.3-2 3.2-1.4 5.5-1.9 4.6-1zm27.4 6.2c-.7.2-1.9.2-2.5 0-.7-.3-.2-.5 1.2-.5s1.9.2 1.3.5zm8.3.2c-.4.5 0 1.1.6 1.3 1.7.6-1.8 2.4-5.7 3-1.6.3-2.4.3-1.7.1.6-.3 1.2-.9 1.2-1.4 0-.5.7-.9 1.5-.9s1.5-.7 1.5-1.5.7-1.5 1.6-1.5c.8 0 1.3.4 1 .9zm-35.6.6c0 .2-1 1-2.2 1.6-2.1 1.1-2.2 1.1-.9-.4 1.3-1.6 3.1-2.3 3.1-1.2zm53.9 6.1c.3.4-.7.4-2.4 0-1.6-.4-4.1-.7-5.4-.7-3 .1-4.7-.9-3.1-1.9 1.2-.7 9.7 1.4 10.9 2.6zm13-1c1.4 1.2-1.9.1-3.5-1.2-1.8-1.4-1.8-1.4.6-.3 1.4.6 2.7 1.3 2.9 1.5zm-28.2-1c-.3.3-1.2.4-1.9.1-.8-.3-.5-.6.6-.6 1.1-.1 1.7.2 1.3.5zm14.8 10.1c1.9 1.4 1.8 1.5-1.4.9-1.8-.3-4-.6-4.8-.6-.8 0-1.2-.4-.9-.9.4-.5 0-1.2-.6-1.5-.7-.3.3-.3 2.2 0 1.9.4 4.4 1.3 5.5 2.1zm4.9 3.2c.3.4-.8.8-2.3.7-1.6-.1-2.7-.4-2.4-.9.6-1 4.1-.9 4.7.2zm-3.4 5.6c0 .1-1.9.3-4.2.3-3.4-.1-3.8-.2-1.8-.7 2.2-.6 6-.4 6 .4zm-34.5 2.7c1.7.6 3.2 1.2 3.5 1.3.3.1 1.7.7 3.2 1.3 1.4.6 4.9 1.1 7.7 1 3 0 5.9.6 7.3 1.6 2.4 1.7 4.2 2.1 3.4.8-.6-.9 2.3-.9 3.9 0 2.2 1.2 6.5 1.8 6.5.8 0-.6 2-.9 4.5-.8 3.9.1 5.3.8 9 4.3 2.5 2.3 4.7 4 4.9 3.8.2-.2 2.4 1.2 5 3.2s5.2 3.3 5.8 2.9c.6-.4.8-.3.5.3-.4.6 1.8 3.4 4.8 6.1 3 2.8 5.5 5.5 5.5 6.1 0 .6.7 1.1 1.6 1.1 1.4 0 1.5-.2.3-1.7-1.3-1.5-1.2-1.5.9-.4 1.3.7 2.1 1.9 1.8 2.6-.2.7.2 2.1.9 3.2.9 1.1 1.4 1.3 1.5.5 0-.7.4-1.1.9-.8.5.4 1.1.3 1.4-.1.2-.5.2-.2 0 .5-.2.8.6 2.6 1.7 4.2 1.1 1.5 2 3.4 2 4.2 0 .8.5 1.9 1.2 2.6.7.7.8 1.2.2 1.2-.5 0-1.5-.5-2.2-1.2-.9-.9-.9-.5 0 1.5 1.3 2.8 2.8 3.6 2.8 1.5 0-.8.3-.8.9-.2 1.8 1.8 1.8 11.9 0 10.8-.7-.4-.9 0-.5 1.2.3 1.1.8 3.7 1.2 5.9.3 2.2.7 4.9.9 6 1.2 7.4 2.5 15.6 2.9 19 .5 4.8 2.1 9.1 3.5 10 .6.3 1.1 2.2 1.1 4.1v3.5l-8.2-.8c-4.6-.4-16.4-.8-26.3-.7-12.6 0-16.4-.2-12.5-.7 3-.5 8.1-.9 11.3-1.1 5.4-.1 5.6-.2 3-1.3-1.5-.7-3.3-1-3.9-.8-.7.2-1.5 0-1.8-.5-.7-1.2 4.1-2.5 5.6-1.6.6.4.9.1.6-.7-.3-.8-1.2-1.2-1.9-1.1-3.2.8-11.9.6-12.2-.2-.5-1.5-12.5-2-14.1-.7-1 .9-1.5.8-1.9-.3-.7-1.7-8.7-2.1-8.3-.3.1.7.1.9-.1.4-.7-1.1-3.5-.8-8.5.8-5.6 1.9-9 5-8.7 7.8.3 4.5-2.2 8.2-7 10.2-6.5 2.7-25.3 3-39.8.5-5.9-1-9.7-1.9-8.3-1.9 1.4 0 7 .6 12.4 1.4 9.5 1.4 13.1 1.4 8.7 0-1.2-.3-2.1-1.1-2.1-1.6 0-.6-.5-.7-1.1-.4-1.2.8-9.5-7.7-10.4-10.6-.5-1.4-1.2-1.8-2.5-1.4-1 .3-2.1.1-2.5-.5-.4-.6-1.6-.8-2.7-.4-1.2.3-1.8.2-1.5-.3.4-.6-.8-.9-2.5-.8-1.8.1-4.7-.1-6.5-.5-1.9-.5-3.6-.4-3.9.2-.3.5-4.3.8-8.7.7-4.5-.2-9.1 0-10.2.4-2.1.7-13.1 1.9-15.2 1.8-4.5-.4-5.3-.6-5.3-1.3 0-.4.6-.8 1.3-.8.9 0 .9-.2.1-.8-.7-.4-1-2.1-.8-3.7.2-1.7 0-3.9-.5-5-1.7-3.8-2.4-6-2.8-9-.3-1.6-1-3.6-1.6-4.4-.7-.8-1.2-2.6-1.3-4-.2-5.7-.4-6.7-1.3-5.3-.6 1-1 .7-1.5-1.3-.4-1.4-.4-3-.1-3.5.5-.9-4.2-2.7-8.5-3.2-2.3-.3-2.5-.7-2.3-4.8.2-2.5.7-5.4 1.2-6.5.5-1.1 1.8-3.8 2.7-6 5.5-12.4 22.7-30 35.1-36 4.3-2.1 9.5-4.6 11.6-5.7 2.1-1 5.6-1.9 8-1.8 2.3 0 6.7-.3 9.7-.7 3-.4 7.6-.8 10.2-.8 2.5 0 4.4-.3 4.1-.7-.2-.5 1.9-.8 4.6-.8 2.8 0 5.1-.4 5.1-.8 0-1.2 9.3-.9 10.2.3.4.5.9.3 1.3-.6.4-1.1 1.4-1.4 3.1-1.1 1.4.2 2.4 0 2.4-.7 0-.8.5-.8 1.8-.1.9.5 3.1 1.5 4.7 2.2zm95.3 62.4c-.3 1.4-.5 1.2-1-.9-.3-1.9-.2-2.5.4-1.9.6.6.8 1.8.6 2.8zM210 152c0 .5-.2 1-.4 1-.3 0-.8-.5-1.1-1-.3-.6-.1-1 .4-1 .6 0 1.1.4 1.1 1zm143.3 14.7c-.7.2-2.1.2-3 0-1-.3-.4-.5 1.2-.5 1.7 0 2.4.2 1.8.5zm38.1 6.6c5.7 1.6 10.1 6.5 11.7 12.9.8 3.2 1.4 10.5 1.4 18.3 0 11.1-.3 13.7-2.1 17.6-6.3 13.5-19.5 20.4-38.4 20.1-17.6-.3-26.6-3.6-34.7-12.6-5-5.6-7.9-10.9-11.4-20.9-1.9-5.6-2.1-7-.9-7.7 1.7-1.1 4-.2 4 1.7 0 .8-.5 1.1-1.2.7-.7-.3 0 .6 1.7 2.2 2.9 2.8 2.9 2.9.7 3.2-2.3.4-3 2.6-1 3.8.6.4 2.5.8 4.2.9 1.7.1 4.8.9 6.9 1.8 5.8 2.5 11.3 3.8 13.1 3.1 2-.8 2-1-.4-3.6-1.9-2.1-1.9-2.1.1-4.7l2.1-2.6-2.9-.6c-3.7-.8-1.4-1.8 5.2-2.1 4.8-.3 5.1-.5 7.1-4.6l2-4.3 2.8 2.2c2.5 1.9 2.6 2.2 1 3.4-1.6 1.2-1.6 1.3.4 2.4 2.7 1.4 3.5 1.4 2.6-.1-.7-1.1 3.7-.7 9.4.8 1.6.5 2.2.2 2.2-.9 0-.9-1-1.9-2.2-2.2-1.3-.4-3.4-1.7-4.8-2.9-6.8-5.9-14.6-9.2-22.8-9.8-4.2-.3-5.9-2.9-3.5-5.3 1.4-1.4 2.9-1.6 8.7-1.1 5.4.4 6.5.3 4.6-.5-1.4-.6-6.3-1.3-11-1.6-7.3-.6-8-.8-5.2-1.5 1.8-.5 3.5-1.5 3.9-2.3.3-.8 1.2-1.5 2-1.5s1.2.4.8.9c-.6 1.1 4.9.9 10-.3 2.1-.4 2.4-.4 1 .3-1.6.7-1 1 3 1.4 2.8.3 6.8.9 8.9 1.3 2.8.5 4.2.3 5-.7.6-.8 1.8-1.4 2.6-1.4s1.4-.8 1.4-1.7c-.1-1 .3-1.5.9-1.1.7.4.8 0 .4-1.1-.6-1.6-.3-1.7 3-1.1 2.1.3 5.6 1.1 7.7 1.8zm-131.1.4c-.7.2-2.1.2-3 0-1-.3-.4-.5 1.2-.5 1.7 0 2.4.2 1.8.5zm76.4 5.9c-.3.3-1.2.4-1.9.1-.8-.3-.5-.6.6-.6 1.1-.1 1.7.2 1.3.5zM250 184c.3.1.9.2 1.3.1.5-.1.7.6.5 1.5-.2 1.2-2.6 2.3-8.3 3.6-11.2 2.7-10.8 2.7-12.7.6-1.6-1.5-1.6-1.8-.2-1.8.8 0 1.2-.5.9-1-.8-1.3.1-1.3 2.6.1 1.7.9 2.1.7 2.6-1 .3-1.1 1-1.8 1.7-1.5.7.3 2.2.1 3.5-.4 2-.7 6.8-.9 8.1-.2zm-19 7.4c0 .3-.4.8-1 1.1-.5.3-1 .1-1-.4 0-.6.5-1.1 1-1.1.6 0 1 .2 1 .4zm-56.3 11.4c-.9 1-2.3 3.5-3.2 5.6-.9 2.1-1.8 3.6-2.1 3.3-1-1 4.8-10.7 6.4-10.7.3 0-.2.8-1.1 1.8zm34.8 17.2c.7 0 1.5-.6 1.8-1.3.4-1 .7-1 1.8 0 1.5 1.5 3.3 1.7 2.4.4-.7-1.2 3.6-.5 4.4.6.3.5 1.2.8 1.9.9 2.8.2 3.2.5 3.2 1.9 0 .8.6 1.2 1.4.9.7-.3 1.6.2 2 1.1.4 1.1 1.2 1.4 2.7 1 1.5-.5 1.9-.4 1.5.4-.6.9.6 1.3 3 1 .4 0 1.1.5 1.6 1.3.6.8 1.1.9 1.4.3.2-.6 3.4-1 7.4-.9 3.9.1 7-.2 7-.7 0-.6.8-.6 1.9.1 1.5.7 2.3.6 3.3-.4 1-.9 2-1.1 3.1-.5.9.5 2.9.7 4.6.4 3.7-.6 7.2 2.2 5 3.9-.8.6-1.5 2.4-1.7 4.1-.4 3.9-2.1 5.6-9 9.3-8.1 4.3-20.1 6.5-32.1 5.9-13.4-.6-19.5-2.7-25.2-8.7-4.8-4.8-8.2-12.1-6.1-12.8.6-.2.8-1 .6-1.7-.4-.9.3-1.6 2-2.1 2.1-.5 2.4-.9 1.5-2-.9-1.1-.7-1.4 1-1.4 1.1 0 2.1-.5 2.1-1.1 0-.5.4-.8.9-.4.5.3 1.3 0 1.7-.7.6-.9.9-.9 1.2 0 .2.7 1 1.2 1.7 1.2zm-13.8 6.2c-.3.8-.6.5-.6-.6-.1-1.1.2-1.7.5-1.3.3.3.4 1.2.1 1.9zm-12.1 18.5c-.3.8-.2 1.2.3.9.5-.3 1.1.5 1.3 1.9.3 1.4.1 2.5-.6 2.5-.6 0-.3.7.7 1.4 2.3 1.7 2.2 3.3-.3 4.6-1.5.8-1.9 1.7-1.5 3.1.5 1.4.2 1.7-.8 1.3-.9-.3-1.3-1.3-.9-2.6.3-1.4.1-1.9-.5-1.5-1.3.8-.5-3.1.9-5 .6-.7.4-1.3-.4-1.6-1-.4-1-.8.2-1.6.8-.6 1-1.1.4-1.1-.9 0-1.2-3.1-.5-4.8.4-1.1 2.1 1.3 1.7 2.5zm9.4 7.7c0 .3-.4.8-1 1.1-.5.3-1 .1-1-.4 0-.6.5-1.1 1-1.1.6 0 1 .2 1 .4zm-7.3 8.8c-.3.8-.6.5-.6-.6-.1-1.1.2-1.7.5-1.3.3.3.4 1.2.1 1.9zm4 13c-.3.8-.6.5-.6-.6-.1-1.1.2-1.7.5-1.3.3.3.4 1.2.1 1.9zm73 4.3c0 2.3-.5 3.1-1.9 3.2-1.1.1-1.8-.5-1.8-1.7 0-1-.5-2.2-1.1-2.6-1.4-.8.7-2.3 3.1-2.1 1.2.1 1.7 1 1.7 3.2zm-3.9 4c2 2.3 2.1 2.5.3 2.5-1.2 0-2-.9-2.3-2.5-.3-1.4-.4-2.5-.3-2.5.1 0 1.1 1.1 2.3 2.5zM238 296c.5.8.3 1.9-.6 2.8-.8.8-1.6 1.3-1.7 1.1-.2-.2-.9-1.3-1.7-2.3-1.3-1.7-1.3-1.8-.1-1.1 1.1.6 1.3.4.8-.7-.7-2 2.1-1.8 3.3.2zm97.4 18.7c.6 1.4.8 1.4 2.1-.3 1-1.4 1.7-1.6 2.5-.8.9.9.5 1.7-1.4 3.2-1.4 1.1-2.6 2.7-2.6 3.6 0 .9-1.7 2.4-3.7 3.4-2.1.9-4.4 2.3-5.1 3-1.8 1.7-5.3 3.5-7.2 3.7-.8.1-2.8.7-4.5 1.4-1.6.7-4.9 1.1-7.3.8-2.3-.2-4.5 0-4.9.5-.7 1.3-11.9.4-13.6-1-.7-.6-2.6-1-4.3-1-3.9.1-7.1-1.6-8-4.4-.6-1.9-.7-1.9-1.6-.5-2.9 5.3-8.5-2.6-6.2-8.7.9-2.4 3.1-1.9 5 .9l1.6 2.5 2.4-2.5c3-3.3 4.7-3.2 7.7.5l2.5 2.9.6-2.4c.6-2.3 1.2-2.5 5.8-2.5 3.5 0 5.4.5 6.3 1.6 1 1.5 1.4 1.4 3.8-1 2-2 3.6-2.6 7-2.6 2.3 0 4.8.5 5.3 1 .8.8 1.5.6 2.4-.5 1.4-1.7 4.3-1.9 7-.5 1.3.7 1.9.6 2.4-.5.7-2 5.2-1.9 6 .2zm-134.2 63.5c-.7.7-1.2.8-1.2.2 0-.6.3-1.4.7-1.7.3-.4.9-.5 1.2-.2.2.3-.1 1.1-.7 1.7zm2.9 4c-1 2.7-3.3 3-3.7.5-.1-.9.2-1.5.7-1.1.5.3.9 0 .9-.5 0-.6.7-1.1 1.5-1.1 1.1 0 1.2.6.6 2.2zm4.9-.1c0 .5.5.7 1.2.3.7-.4.8-.3.4.5-.6.9-1.1.9-2.2 0-1.7-1.4-1.8-1.9-.4-1.9.6 0 1 .5 1 1.1zm1.5 2.9c.4-.7 1.6-.2 3.1 1.5 1.3 1.5 2.2 3 1.9 3.5-.3.4 0 1 .7 1.2.9.3.8 1.1-.5 3.1-1.9 3-2.2 4.7-.6 4.7.5 0 .7-.5.4-1-1-1.7.6-3.4 1.7-1.9.6 1 .7.7.3-.8-.5-1.8-.3-2.2.9-1.7.9.3 1.6 1 1.6 1.6 0 .5.5.6 1.2.2.8-.5.9-.2.5.9-.4 1-.2 1.7.4 1.7.6 0 .8.7.5 1.6-.4 1.1-.2 1.5.6 1.2.7-.3 2.2.3 3.2 1.3 1.3 1.2 1.5 1.9.7 1.9-1.1 0-1.1.3-.1 1.5 1.6 1.9 3.3.8 2.6-1.8-.2-1.1-.2-1.6.2-1.1s1.7 2 2.9 3.4c2.2 2.6 2.2 2.6.2 2.7-1.4.1-1.9-.3-1.5-1.3.8-2.1-.7-1.7-2.2.6-1.1 1.8-1 2 1.3 2 2.6 0 3.4 1.5 1.3 2.3-.8.3-.5.6.5.6 1 .1 1.5.6 1.2 1.2-.5.7-1.3.5-2.4-.5-1-.9-2.2-1.6-2.8-1.6-.6 0-1.7-1-2.6-2.3-1.3-1.9-1.7-2-2.9-.8-.7.8-.8 1.1-.2.8 1.4-.8 5.7 5 4.8 6.4-.4.6-.1 1.5.6 1.9.7.4.8 1 .3 1.3-.6.4-2.7-1.4-4.8-3.8-2.1-2.5-4.3-4.5-5-4.5-.6 0-2-.8-3.1-1.9-1.1-1-3-2.4-4.2-3-1.2-.6-2.2-1.6-2.2-2.2 0-.5-.8-1.8-1.7-2.9-2.8-2.9-5.5-8-4.4-8 .6 0 1.1-.5 1.1-1 0-.6-.7-1-1.6-1-.8 0-1.2-.5-.9-1 .4-.6.1-1.7-.5-2.5-1.4-1.6-1-1.8 1.4-.9.9.3 1.4 1 1.1 1.4-1.1 1.8 1.1 1.6 2.8-.2 1.6-1.7 1.6-1.8 0-1.8-1.5 0-1.6-.2-.3-1 .9-.5 1.9-.5 2.6.1.8.7 1.4.6 1.9-.1zm75.3 27.5c-.3.3-.9-.2-1.2-1.2-.6-1.4-.5-1.5.5-.6.7.7 1 1.5.7 1.8zm5.3 2.3c-.7.2-1.8-.1-2.3-.6-.8-.8-.4-.9 1.3-.5 1.3.4 1.8.8 1 1.1zm-53.1 9.7c1.3 1.4 1.8 2.5 1.2 2.5-.7 0-1.2-.3-1.2-.8 0-.4-1.2-1.5-2.7-2.4-1.8-1.1-2.2-1.8-1.2-1.8.8 0 2.6 1.1 3.9 2.5zm63.5 14.5c.3.5-.1 1-.9 1s-1.8-.5-2.1-1c-.3-.6.1-1 .9-1s1.8.4 2.1 1zm49.9 22.2c-.3.4-.9.8-1.5.8-.5 0-.9-.4-.9-.8 0-.5.7-.9 1.5-.9s1.2.4.9.9zM309.5 481l2 .9h-2c-1.1 0-2.7-.4-3.5-.9-1.3-.9-1.3-1 0-.9.8 0 2.4.4 3.5.9zm-36.8 4.2c3.4 3.2 3.2 9.9-.3 12.7-2.6 2.1-7.6 2.7-10.9 1.5-2.5-1-4.7-6.2-4-9.5 1.4-6.3 10.4-9.2 15.2-4.7zm-36.2 38.3c3.4 3.3 3.3 7.7-.1 10.4-4.4 3.4-8.6 2.6-11-2.1-1.9-3.7-1-6.4 2.9-8.9 4.2-2.5 5.3-2.4 8.2.6zm149.6.4c3.8 3.8 4 8.4.4 10.7-2.1 1.4-3 1.4-5.6.4-2.8-1.2-5.9-5.4-5.9-8.1 0-2 4.2-5.9 6.3-5.9 1 0 3.2 1.3 4.8 2.9zm-71.3 57.3c6.5 7.1 4.4 16.8-3.8 16.8-4.3 0-6.6-2.1-8.1-7.5-2.4-8.5 6.3-15.2 11.9-9.3z"/><path d="M396.5 108.9c-.3.5-.1 1.2.5 1.6.5.3 1-.1 1-.9 0-1.8-.6-2.1-1.5-.7zM230.8 157.7c.7.3 1.6.2 1.9-.1.4-.3-.2-.6-1.3-.5-1.1 0-1.4.3-.6.6zM366 186.3c0 .1 2.1 2 4.8 4.2 4.3 3.5 4.5 3.6 1.7.6-2.6-2.9-6.5-5.8-6.5-4.8zM264.2 489.8c-2 1.3-.3 4.4 2.2 4 2.7-.4 3.6-4.8.9-4.8-1 0-2.4.4-3.1.8zM230.7 526.6c-1.4 1.4-.7 3.5 1.1 3.2.9-.2 1.7-1 1.7-1.7 0-1.6-1.8-2.5-2.8-1.5zM381.6 528.4c.3.9 1.1 1.6 1.6 1.6 1.3 0 .5-2.3-1-2.8-.7-.2-1 .2-.6 1.2zM309 588.5c0 1.6.6 2.5 1.5 2.5 1.6 0 1.9-.9.9-3.4-.9-2.5-2.4-1.9-2.4.9zM413 233.9c0 2.5 2 8.1 3 8.1.7 0 .5-2.4-.6-7.8-.5-2.7-2.4-3-2.4-.3zM285.5 237c.3.5.8 1 1.1 1 .2 0 .4-.5.4-1 0-.6-.5-1-1.1-1-.5 0-.7.4-.4 1zM285.4 240.6c.3.9.6 2.1.6 2.7 0 .8.3.8 1.1 0 1.3-1.3.5-4.3-1.2-4.3-.6 0-.8.7-.5 1.6zM334.4 262.1c-.4.7-.3.9.4.5.5-.3 1.3 0 1.5.6.4.9.6 1 .6.1.1-1.7-1.6-2.5-2.5-1.2zM168.1 277.2c.2 2.9 1.6 6.3 2.4 6.4.6 0 1.8.4 2.7.8 4.9 2.2 3.6-4.4-1.3-7-3.4-1.7-3.9-1.7-3.8-.2zM180.6 286.6c-.8 2.1-.8 2.4.3 2.4 1.2 0 2.2-2.8 1.2-3.5-.5-.3-1.2.2-1.5 1.1zM363.7 307.7c-.2.5-.1 1.9.4 3.3.7 2.3.7 2.3.8-.8.1-3.1-.3-4-1.2-2.5zM285.8 359.7c.7.3 1.6.2 1.9-.1.4-.3-.2-.6-1.3-.5-1.1 0-1.4.3-.6.6zM289 364c0 .5.5 1 1.1 1 .5 0 .7-.5.4-1-.3-.6-.8-1-1.1-1-.2 0-.4.4-.4 1z"/></svg>