<?xml version="1.0" standalone="no"?>
<!DOCTYPE svg PUBLIC "-//W3C//DTD SVG 20010904//EN"
 "http://www.w3.org/TR/2001/REC-SVG-20010904/DTD/svg10.dtd">
<svg version="1.0" xmlns="http://www.w3.org/2000/svg"
 width="500.000000pt" height="500.000000pt" viewBox="0 0 500.000000 500.000000"
 preserveAspectRatio="xMidYMid meet">
<metadata>
Created by potrace 1.14, written by Peter Selinger 2001-2017
</metadata>
<g transform="translate(0.000000,500.000000) scale(0.100000,-0.100000)"
fill="#000000" stroke="none">
<path d="M2794 4363 c3 -17 16 -29 16 -15 0 7 5 12 11 12 5 0 7 -4 4 -10 -3
-5 -1 -10 4 -10 6 0 11 5 11 10 0 6 5 10 10 10 7 0 7 -6 0 -20 -9 -16 -8 -18
5 -14 8 3 12 10 9 15 -3 5 5 13 18 18 19 7 12 9 -33 12 -41 3 -56 1 -55 -8z"/>
<path d="M2718 4342 c-57 -28 -70 -29 -45 -3 10 11 9 12 -1 6 -7 -4 -17 -18
-22 -31 -5 -13 -15 -24 -22 -24 -9 0 -8 3 2 10 13 9 13 10 0 10 -8 -1 -24 -7
-34 -15 -10 -8 -23 -12 -29 -8 -6 3 -7 1 -3 -5 4 -7 2 -12 -3 -12 -21 0 -26
-2 -38 -12 -7 -6 -13 -7 -13 -4 0 4 -10 1 -22 -5 -12 -6 -40 -13 -62 -16 -47
-4 -91 -11 -91 -13 0 -1 -10 -3 -23 -6 -26 -5 -82 -43 -82 -56 0 -5 -9 -18
-20 -30 -11 -12 -20 -29 -20 -39 0 -15 -23 -28 -55 -33 -5 0 -19 -19 -30 -41
-13 -25 -38 -49 -68 -67 -25 -15 -60 -42 -77 -60 -34 -36 -80 -127 -80 -159 0
-12 -14 -28 -35 -40 -19 -12 -35 -24 -35 -27 0 -13 -47 -62 -59 -62 -6 0 -11
-11 -11 -25 0 -14 -5 -25 -11 -25 -6 0 -4 -9 4 -21 20 -28 11 -58 -15 -51 -16
4 -19 2 -12 -9 11 -19 13 -109 2 -132 -13 -25 -18 -108 -19 -308 -1 -194 6
-262 27 -280 20 -16 17 -32 -5 -26 -26 6 -16 -29 15 -49 17 -11 27 -35 40 -90
10 -41 21 -74 24 -74 4 0 8 33 9 73 1 39 4 81 6 92 2 11 7 92 10 179 5 124 11
170 26 209 11 27 19 57 17 66 -1 9 1 25 4 36 4 11 9 71 13 133 9 174 47 254
190 394 54 52 84 71 227 139 10 5 20 4 23 -1 3 -6 28 -10 56 -10 32 0 49 -4
49 -12 0 -9 4 -8 10 2 7 10 10 11 10 2 0 -9 7 -9 34 2 19 8 37 12 40 9 2 -3
11 -1 18 3 19 12 58 16 77 8 24 -11 42 -13 37 -5 -7 10 75 3 88 -9 7 -5 18 -5
26 0 15 9 118 4 134 -8 6 -4 46 -7 88 -7 43 0 78 -3 78 -7 0 -5 7 -8 15 -8 21
0 135 -60 135 -71 0 -5 15 -17 34 -26 87 -46 196 -239 201 -358 1 -22 5 -51 9
-65 3 -14 8 -38 10 -55 3 -16 9 -46 16 -65 25 -80 41 -181 45 -283 3 -101 18
-232 32 -287 6 -25 6 -25 13 5 4 17 8 49 9 72 0 23 7 46 14 50 8 4 17 17 20
27 4 10 10 16 14 12 4 -3 12 8 18 26 6 18 7 36 3 39 -5 3 -3 20 3 38 11 31 7
237 -7 326 -2 17 -7 70 -10 119 -3 50 -12 103 -21 119 -11 22 -11 27 -1 21 8
-5 6 2 -4 16 -10 14 -25 40 -33 59 -8 18 -31 55 -50 81 -19 26 -35 53 -35 58
0 6 -9 16 -20 22 -11 6 -20 20 -20 30 0 11 -4 20 -9 20 -5 0 -11 14 -15 31 -3
17 -15 42 -26 56 -11 14 -20 38 -20 54 0 16 -8 34 -20 42 -11 8 -23 28 -26 45
-6 27 -4 31 15 29 11 -1 21 -5 21 -9 0 -4 5 -8 11 -8 5 0 7 4 4 10 -3 6 1 7 9
4 9 -3 14 -10 11 -14 -3 -5 -1 -11 4 -14 5 -4 8 0 7 7 -3 22 -31 54 -54 61
-12 4 -20 11 -17 16 3 4 -2 11 -10 14 -8 3 -14 9 -13 13 0 4 -4 21 -10 36 -7
16 -12 32 -12 36 0 15 -57 75 -113 119 -63 48 -170 91 -227 92 -27 0 -32 3
-20 10 11 8 7 9 -14 4 -16 -4 -45 -18 -65 -31 -23 -16 -44 -22 -63 -19 -15 2
-28 0 -28 -5 0 -6 -5 -7 -11 -4 -5 4 -20 -1 -31 -12 -21 -17 -21 -17 -15 0 4
10 7 21 7 23 0 2 9 4 21 4 11 0 18 4 15 8 -2 4 -1 14 5 22 7 13 9 13 9 -1 0
-9 7 -16 15 -16 8 0 15 4 15 9 0 4 -4 8 -9 8 -5 0 -11 7 -13 16 -2 13 -13 10
-60 -14z m199 -8 c-3 -3 -12 -4 -19 -1 -8 3 -5 6 6 6 11 1 17 -2 13 -5z"/>
<path d="M2806 4325 c-3 -8 -1 -15 4 -15 13 0 22 18 11 24 -5 3 -11 -1 -15 -9z"/>
<path d="M3010 3114 c-121 -14 -111 -12 -107 -22 1 -5 -11 -20 -28 -34 -26
-23 -28 -28 -15 -42 9 -12 22 -15 39 -11 19 4 22 3 11 -4 -8 -6 -12 -12 -9
-15 10 -10 90 -18 169 -18 41 0 69 -2 63 -5 -28 -11 -10 -21 30 -17 31 3 37 2
22 -5 -17 -8 -14 -10 18 -10 20 -1 37 -5 37 -11 0 -5 15 -10 33 -10 18 0 37
-4 43 -9 5 -4 22 -12 38 -15 27 -7 28 -6 15 10 -8 10 -9 15 -4 12 6 -4 17 -3
25 2 12 7 12 10 -3 16 -9 3 -17 10 -17 16 0 5 5 6 10 3 16 -10 12 7 -5 19 -8
6 -16 21 -18 33 -2 12 -7 26 -12 30 -4 5 -4 1 0 -7 5 -8 -12 6 -37 32 -67 68
-131 81 -298 62z"/>
<path d="M2280 3100 c-25 -4 -77 -6 -117 -3 -73 4 -151 -16 -139 -36 4 -5 1
-15 -6 -23 -7 -7 -19 -25 -27 -40 -8 -16 -18 -28 -23 -28 -4 0 -8 -7 -8 -16 0
-9 5 -12 12 -8 7 4 8 3 4 -5 -4 -6 -11 -9 -16 -6 -5 3 -11 1 -15 -5 -3 -5 2
-10 12 -10 15 0 16 -2 3 -10 -12 -7 -10 -11 10 -19 l25 -10 -24 0 c-36 -1 -23
-7 32 -15 34 -5 47 -4 45 5 -2 6 14 16 35 23 22 6 35 14 31 19 -4 4 16 7 44 7
27 0 58 3 68 7 16 6 16 7 -2 15 -12 5 2 7 38 4 32 -3 60 0 63 5 4 5 19 9 34 9
47 0 91 12 85 22 -4 6 3 5 14 -1 17 -9 23 -8 31 6 22 40 -56 119 -110 111 -16
-3 -29 -1 -29 4 0 9 -5 9 -70 -2z"/>
<path d="M3085 2950 c-3 -5 -2 -10 4 -10 5 0 13 5 16 10 3 6 2 10 -4 10 -5 0
-13 -4 -16 -10z"/>
<path d="M2985 2889 c-34 -11 -63 -33 -88 -69 -23 -33 -21 -43 6 -29 21 10 21
10 -3 -14 -14 -13 -34 -35 -45 -48 -18 -22 -20 -22 -23 -5 -2 10 1 23 6 28 6
6 7 21 2 38 -6 19 -4 30 3 33 8 2 8 5 0 10 -12 8 -30 -18 -40 -56 -12 -51 -15
-87 -5 -87 8 0 26 -43 19 -46 -1 0 4 -9 12 -18 11 -13 16 -14 22 -4 6 8 9 9 9
2 0 -7 11 -14 25 -16 31 -6 32 8 3 40 -13 14 -16 22 -8 18 9 -5 8 -2 -2 7 -27
21 -23 39 7 31 32 -8 64 -8 97 -1 18 4 33 0 43 -9 9 -9 15 -11 15 -4 0 7 6 8
18 1 19 -10 98 -6 151 9 19 5 45 7 58 4 55 -14 66 26 12 45 -16 5 -29 15 -29
20 0 6 -6 11 -13 11 -7 0 -18 5 -25 12 -16 16 -81 37 -103 33 -11 -2 -19 0
-19 5 0 5 -14 4 -32 -1 -44 -12 -48 -12 -48 6 0 8 -9 15 -20 15 -11 0 -20 4
-20 10 0 9 50 26 100 34 14 2 7 3 -15 4 -22 0 -53 -4 -70 -9z m10 -136 c7 -24
-8 -30 -34 -14 -10 7 -11 13 -1 31 13 24 24 18 35 -17z m70 17 c-3 -5 -10 -10
-16 -10 -5 0 -9 5 -9 10 0 6 7 10 16 10 8 0 12 -4 9 -10z m112 2 c15 -9 5 -25
-24 -40 -20 -11 -21 -11 -10 18 12 32 15 34 34 22z"/>
<path d="M3138 2883 c7 -3 16 -2 19 1 4 3 -2 6 -13 5 -11 0 -14 -3 -6 -6z"/>
<path d="M2175 2864 c-27 -9 -61 -27 -75 -41 l-25 -25 42 26 c38 23 87 39 153
49 17 3 14 4 -10 5 -19 0 -57 -6 -85 -14z"/>
<path d="M2343 2869 c15 -9 16 -12 2 -25 -8 -8 -19 -12 -25 -9 -5 3 -10 1 -10
-4 0 -6 -12 -11 -26 -11 -34 0 -105 -20 -124 -35 -21 -16 -52 -29 -67 -26 -7
1 -13 -7 -13 -18 0 -11 -9 -26 -21 -35 l-21 -14 23 -4 c13 -2 36 -1 52 3 19 5
25 4 21 -3 -5 -7 -1 -9 9 -5 9 3 22 1 29 -6 13 -12 114 -17 133 -6 23 13 76 9
81 -6 8 -21 21 -19 27 5 4 15 14 20 41 20 46 0 57 22 26 55 -12 13 -20 30 -17
37 11 33 -65 98 -115 98 -21 -1 -21 -2 -5 -11z m92 -39 c3 -6 -1 -7 -9 -4 -18
7 -21 14 -7 14 6 0 13 -4 16 -10z m-212 -119 c10 -12 7 -13 -18 -7 -57 14 -66
39 -21 55 17 7 22 4 24 -13 2 -11 9 -27 15 -35z m187 39 c27 -23 25 -28 -17
-36 -29 -6 -30 -5 -25 25 5 36 11 38 42 11z"/>
<path d="M3200 2859 c19 -12 48 -33 64 -48 l30 -26 -25 31 c-13 18 -39 39 -57
48 -46 23 -53 20 -12 -5z"/>
<path d="M2502 2817 c10 -8 15 -16 12 -20 -3 -3 2 -19 10 -36 9 -16 16 -43 16
-58 0 -20 3 -24 9 -14 5 8 5 27 0 43 -4 17 -7 33 -7 37 4 13 -22 49 -39 55
-17 6 -17 5 -1 -7z"/>
<path d="M3651 2764 c0 -11 3 -14 6 -6 3 7 2 16 -1 19 -3 4 -6 -2 -5 -13z"/>
<path d="M3676 2735 c-3 -8 -1 -15 3 -15 5 0 11 7 15 15 3 8 1 15 -3 15 -5 0
-11 -7 -15 -15z"/>
<path d="M2497 2663 c-4 -3 -7 -18 -7 -31 0 -25 10 -26 14 0 1 7 5 19 9 26 8
12 -5 17 -16 5z"/>
<path d="M3577 2527 c-3 -9 -2 -28 2 -44 l7 -28 7 34 c7 35 -6 65 -16 38z"/>
<path d="M1786 2445 c4 -8 8 -15 10 -15 2 0 4 7 4 15 0 8 -4 15 -10 15 -5 0
-7 -7 -4 -15z"/>
<path d="M3581 2335 c1 -23 3 -25 6 -7 5 26 7 26 33 10 10 -7 22 -9 26 -5 12
11 -13 30 -41 32 -22 1 -25 -3 -24 -30z"/>
<path d="M2899 2345 c15 -32 40 -61 41 -48 0 7 -12 25 -26 40 -16 18 -22 21
-15 8z"/>
<path d="M2825 2171 c-11 -5 -29 -19 -40 -31 -18 -21 -15 -20 25 5 61 37 66
46 15 26z"/>
<path d="M2846 2127 c-16 -12 -16 -14 -3 -14 9 0 18 6 21 14 3 7 4 13 3 13 -2
0 -11 -6 -21 -13z"/>
<path d="M2794 2085 c-17 -13 -17 -14 -2 -15 9 0 20 5 23 11 11 17 0 20 -21 4z"/>
<path d="M2880 2070 c0 -5 5 -10 10 -10 6 0 10 5 10 10 0 6 -4 10 -10 10 -5 0
-10 -4 -10 -10z"/>
<path d="M2735 2060 c3 -5 10 -10 16 -10 5 0 9 5 9 10 0 6 -7 10 -16 10 -8 0
-12 -4 -9 -10z"/>
<path d="M3046 2057 c-17 -12 -17 -14 1 -36 14 -18 24 -21 46 -16 33 9 35 22
5 27 -13 2 -23 8 -23 15 0 20 -11 23 -29 10z"/>
<path d="M2606 2048 c3 -4 9 -8 15 -8 5 0 9 4 9 8 0 5 -7 9 -15 9 -8 0 -12 -4
-9 -9z"/>
<path d="M2827 2045 c17 -13 17 -14 -2 -29 -11 -8 -17 -17 -13 -21 9 -9 68 4
68 16 0 5 7 9 15 9 8 0 15 -8 15 -17 0 -13 2 -15 8 -5 5 7 16 10 24 7 24 -10
34 16 13 32 -15 10 -20 10 -27 0 -4 -7 -8 -8 -8 -1 0 11 -2 12 -68 18 -38 3
-41 2 -25 -9z"/>
<path d="M3106 2048 c3 -5 10 -6 15 -3 13 9 11 12 -6 12 -8 0 -12 -4 -9 -9z"/>
<path d="M2395 2032 c-16 -2 -34 -8 -40 -14 -7 -7 -3 -9 13 -5 14 3 25 0 31
-11 5 -8 16 -17 25 -18 9 -1 14 2 11 6 -3 5 7 10 22 12 38 4 42 27 4 24 -17
-1 -32 0 -33 3 -2 3 -16 5 -33 3z"/>
<path d="M3270 2035 c0 -5 5 -17 10 -25 5 -8 10 -10 10 -5 0 6 -5 17 -10 25
-5 8 -10 11 -10 5z"/>
<path d="M2254 2003 c-16 -15 -30 -26 -31 -25 -2 1 -3 0 -3 -3 0 -3 0 -10 0
-17 0 -6 6 -4 14 7 8 12 20 16 35 12 23 -6 48 24 36 43 -10 16 -20 12 -51 -17z"/>
<path d="M2988 2018 c14 -14 45 -20 37 -8 -2 4 -14 10 -26 13 -16 4 -19 3 -11
-5z"/>
<path d="M2495 2000 c-10 -11 -22 -17 -28 -13 -6 3 -7 1 -3 -5 5 -9 12 -8 27
1 16 10 21 9 28 -1 7 -11 9 -11 13 0 3 7 0 18 -7 25 -10 9 -17 8 -30 -7z"/>
<path d="M2773 2005 c0 -8 4 -12 9 -9 5 3 6 10 3 15 -9 13 -12 11 -12 -6z"/>
<path d="M2193 1934 c-7 -7 -13 -19 -13 -26 0 -7 7 -2 16 10 18 26 16 37 -3
16z"/>
<path d="M2217 1899 c4 -13 9 -17 15 -11 11 11 3 32 -12 32 -4 0 -6 -9 -3 -21z"/>
<path d="M3078 1915 c-2 -2 -32 -6 -68 -9 -36 -2 -83 -8 -105 -11 -22 -4 -46
-7 -52 -8 -7 0 -13 -3 -13 -6 0 -3 -24 -6 -52 -7 -29 0 -78 -4 -109 -9 -36 -5
-63 -4 -76 3 -14 8 -23 8 -31 0 -9 -9 -12 -8 -12 5 0 14 -4 16 -19 7 -11 -5
-22 -6 -25 -1 -14 23 -182 28 -241 8 l-35 -12 25 -38 c14 -20 30 -37 35 -37 5
0 28 -25 51 -55 23 -30 48 -55 56 -55 8 0 11 -5 8 -11 -6 -9 1 -18 52 -59 38
-31 100 -52 161 -56 34 -2 62 -2 62 1 0 2 -21 8 -47 13 -35 8 -50 7 -55 -1 -6
-9 -8 -9 -8 1 0 6 -6 12 -13 12 -7 0 -30 17 -50 38 -25 25 -32 39 -22 39 8 0
15 -6 15 -13 0 -8 6 -11 13 -9 7 3 42 1 77 -4 41 -5 69 -5 77 1 7 5 17 7 23 3
5 -3 13 1 16 10 5 13 9 14 15 4 10 -17 56 -23 64 -9 5 8 12 7 23 -2 11 -9 16
-10 19 -2 6 19 40 4 39 -16 -1 -11 -10 -25 -20 -33 -16 -12 -17 -15 -3 -20 15
-6 76 32 117 73 21 21 65 101 62 113 -1 4 3 7 8 7 6 0 10 4 10 10 0 5 7 18 15
27 8 10 16 23 17 28 1 6 8 16 15 23 17 18 17 48 -1 55 -8 3 -16 4 -18 2z m-99
-81 c-22 -27 -34 2 -13 33 19 28 19 28 22 5 2 -13 -2 -30 -9 -38z m-569 18 c0
24 18 32 43 21 12 -6 66 -17 121 -26 93 -14 106 -14 224 4 69 11 129 16 133
12 29 -32 10 -83 -32 -83 -10 0 -19 -4 -19 -9 0 -5 -16 -18 -35 -30 -19 -11
-35 -16 -35 -10 0 6 -7 3 -16 -6 -12 -11 -31 -16 -63 -14 -25 1 -54 -2 -64 -6
-24 -10 -136 13 -167 34 -14 9 -39 23 -57 30 -17 7 -34 19 -37 27 -3 8 -12 14
-20 14 -18 0 -26 22 -19 50 l6 23 18 -24 c15 -19 19 -21 19 -7z"/>
<path d="M1932 1551 c-29 -39 -37 -59 -109 -266 -70 -202 -54 -181 -173 -235
-58 -26 -158 -72 -223 -103 -65 -31 -150 -71 -190 -88 -105 -46 -391 -200
-549 -295 -76 -46 -173 -101 -217 -123 -94 -48 -191 -126 -289 -236 -60 -66
-132 -175 -132 -199 0 -3 1105 -6 2455 -6 l2455 0 -12 28 c-6 15 -29 50 -50
77 -153 202 -198 242 -465 416 -238 156 -449 276 -738 420 -132 66 -243 125
-247 132 -4 8 -16 67 -28 133 -11 65 -28 142 -37 169 l-18 50 -6 -81 c-8 -103
-46 -187 -118 -262 -28 -28 -54 -52 -58 -52 -3 0 -22 -12 -42 -27 -20 -15 -36
-26 -36 -23 0 2 -21 -10 -47 -28 -27 -18 -48 -39 -48 -47 0 -16 -39 -45 -65
-49 -9 -1 -24 -9 -33 -17 -100 -82 -132 -113 -132 -129 0 -11 -6 -23 -14 -27
-8 -4 -15 -12 -17 -18 -7 -35 -66 -135 -79 -135 -17 0 -53 53 -43 64 3 3 2 6
-4 6 -5 0 -20 24 -34 53 -13 28 -33 66 -46 82 -21 29 -107 100 -121 100 -19 0
-85 48 -89 65 -5 18 -93 90 -111 90 -4 0 -48 37 -99 83 -96 86 -133 132 -165
207 -21 47 -21 80 1 245 5 33 7 62 5 63 -1 2 -16 -14 -32 -37z m472 -917 c21
-20 20 -73 -1 -96 -22 -25 -77 -24 -104 3 -22 22 -21 67 2 96 16 18 84 17 103
-3z m-310 -340 c22 -21 20 -60 -4 -84 -24 -24 -38 -25 -69 -4 -18 13 -22 22
-17 47 3 16 11 36 17 44 15 18 54 17 73 -3z m1178 -1 c26 -29 30 -59 13 -77
-35 -34 -85 -5 -85 50 0 44 43 60 72 27z"/>
<path d="M2332 588 c7 -19 38 -22 38 -4 0 10 -9 16 -21 16 -12 0 -19 -5 -17
-12z"/>
<path d="M2040 254 c0 -17 22 -14 28 4 2 7 -3 12 -12 12 -9 0 -16 -7 -16 -16z"/>
<path d="M3240 261 c0 -5 5 -13 10 -16 6 -3 10 -2 10 4 0 5 -4 13 -10 16 -5 3
-10 2 -10 -4z"/>
<path d="M2767 1573 c3 -8 18 -13 39 -11 40 2 32 16 -13 22 -23 2 -30 0 -26
-11z"/>
<path d="M2708 1463 c7 -3 16 -2 19 1 4 3 -2 6 -13 5 -11 0 -14 -3 -6 -6z"/>
<path d="M2313 1152 c105 -106 234 -152 411 -146 119 3 196 27 245 74 21 19
30 30 22 24 -61 -41 -74 -47 -68 -30 5 11 1 16 -13 16 -10 0 -22 -5 -25 -10
-4 -6 -11 -8 -16 -5 -5 4 -9 1 -9 -4 0 -18 -71 -43 -86 -30 -8 6 -11 15 -8 20
3 5 0 9 -5 9 -6 0 -12 -4 -12 -10 -1 -5 -2 -16 -3 -22 -1 -14 -58 -23 -83 -14
-12 5 -13 9 -3 21 7 9 10 18 7 21 -11 12 -57 -6 -57 -22 0 -11 -5 -14 -16 -10
-9 3 -27 6 -41 6 -25 0 -26 0 -8 20 23 26 0 28 -28 3 -11 -10 -17 -12 -13 -5
5 7 1 12 -10 12 -10 0 -25 6 -33 14 -9 8 -33 16 -54 19 -29 4 -50 17 -89 56
-28 28 -53 51 -56 51 -4 0 20 -26 51 -58z"/>
</g>
</svg>
