<svg id="Layer_1" data-name="Layer 1" xmlns="http://www.w3.org/2000/svg" viewBox="0 0 120 60"><path d="M40,41.75v-23h1.25v3.62a5.08,5.08,0,0,0,.41-.51,6.18,6.18,0,0,1,5.65-3.5,6.65,6.65,0,0,1,6.53,3.5,11.31,11.31,0,0,1,.27,10.33c-1.27,2.84-4.4,4.26-7.76,3.74a6.26,6.26,0,0,1-5-3.3v9.16Zm1.25-14.89.28,2.71c.49,3.08,2.31,4.9,5.17,5.24a5.88,5.88,0,0,0,6.46-3.74,10,10,0,0,0-.22-8.24,5.77,5.77,0,0,0-6.07-3.35,5.61,5.61,0,0,0-5,4.15,29.19,29.19,0,0,0-.61,3.23ZM80.75,30a6.74,6.74,0,0,1-6.59,6c-5.24.26-7.7-3.22-8.09-7.24a11.59,11.59,0,0,1,1-6.38,7.12,7.12,0,0,1,7.41-4,6.8,6.8,0,0,1,6,5.18,33.11,33.11,0,0,1,.59,3.83H67.36c-.25,3.64,1.71,6.57,4.48,7.28,3.45.85,6.41-.65,7.48-3.93.24-.85.67-1,1.44-.73ZM67.35,26.2H79.67c-.08-3.88-2.5-6.7-5.77-6.73C70.2,19.41,67.51,22.12,67.35,26.2Zm15.94,3.88H84.5a4.85,4.85,0,0,0,2.84,4.17,7.44,7.44,0,0,0,6.45-.17,2.92,2.92,0,0,0,1.71-2.85,2.63,2.63,0,0,0-1.77-2.63c-1.33-.5-2.74-.77-4.1-1.2a30.33,30.33,0,0,1-4.12-1.51c-2.18-1.06-2.31-5.21.16-6.52a8.67,8.67,0,0,1,8.3-.13,4.35,4.35,0,0,1,2.21,4.46h-1c0-.05-.09-.09-.09-.14-.13-3.3-2.91-4.34-5.88-4a7.61,7.61,0,0,0-2.56.78,2.72,2.72,0,0,0,.23,4.95c1.3.48,2.68.78,4,1.16l3.25.85a3.85,3.85,0,0,1,2.64,3.46A4.1,4.1,0,0,1,94.55,35c-2.84,1.61-7.52,1.18-9.6-.85a5.64,5.64,0,0,1-1.65-4Zm28.78-6.38h-1.13a2.13,2.13,0,0,0-.08-.41,3.69,3.69,0,0,0-3-3.56,7.43,7.43,0,0,0-4.77.23A2.9,2.9,0,0,0,101,22.72a2.67,2.67,0,0,0,2,2.69l5.17,1.33a15.68,15.68,0,0,1,1.65.5,4.26,4.26,0,0,1,.22,7.93,9.46,9.46,0,0,1-7.66.07,5.3,5.3,0,0,1-3.2-5.15h1.11A6.21,6.21,0,0,0,109.75,34a3.05,3.05,0,0,0,1.64-2.85,2.63,2.63,0,0,0-1.8-2.61c-1.33-.49-2.74-.76-4.09-1.2a28.76,28.76,0,0,1-4.14-1.49c-2.13-1.05-2.3-5.16.12-6.47a8.6,8.6,0,0,1,8.45-.09,4.45,4.45,0,0,1,2.13,4.37ZM37.94,35.53a1.93,1.93,0,0,1-2.41-.92l-4.4-6.08-.64-.85-5.11,6.94a1.86,1.86,0,0,1-2.3.9l6.58-8.82-6.12-8a2,2,0,0,1,2.43.85l4.56,6.16,4.58-6.14a1.83,1.83,0,0,1,2.28-.85L35,21.9,31.8,26.09a.84.84,0,0,0-.06,1.2l.06.06,6.13,8.18ZM65.87,18.64v1.2a6.17,6.17,0,0,0-6.56,5.75c0,.21,0,.42,0,.62v9.37H58.09V18.72h1.2v3.45c1.47-2.52,3.74-3.45,6.59-3.52Zm-58.54,8,.54-2.65c1.47-5.23,7.47-7.41,11.6-4.17,2.42,1.9,3,4.59,2.9,7.62H8.75c-.22,5.41,3.69,8.68,8.68,7a5.21,5.21,0,0,0,3.3-3.67c.26-.85.7-1,1.49-.75A6.88,6.88,0,0,1,18.92,35,8,8,0,0,1,9.6,33.84a8.4,8.4,0,0,1-2.09-4.92,3.37,3.37,0,0,0-.17-.85c0-.5,0-1,0-1.48Zm1.44-.37H21.08c-.07-3.92-2.55-6.7-5.85-6.73-3.68,0-6.31,2.67-6.47,6.72Z"/></svg>