<svg xmlns="http://www.w3.org/2000/svg" viewBox="0 0 115.12 24.19"><desc>NGINX Logo</desc><path id="nginxa" d="M2.49,21.6V2.54L21.55,21.6V2.54" style="fill:none;stroke:#090;stroke-linecap:round;stroke-linejoin:round;stroke-width:5px"/><path d="M33.13.06l-.69,1.28L27.13,11l-.69,1.22.69,1.22,5.31,9.34.72,1.28h13.9l.69-1.4,4-8L53.5,11H39.34a2.59,2.59,0,0,0-2.53,2.5A2.59,2.59,0,0,0,39.34,16h6.13L44,19H36.06l-3.9-6.87L36.09,5h8.38l2,4h5L48.29,1.4,47.6.06Z" style="fill:#090"/><path d="M58.45,0A2.61,2.61,0,0,0,56,2.56V9.08h5V2.56A2.6,2.6,0,0,0,58.45,0Z" style="fill:#090"/><path id="nginxa-2" d="M85.53,21.65V2.59L66.47,21.65V2.59" style="fill:none;stroke:#090;stroke-linecap:round;stroke-linejoin:round;stroke-width:5px"/><path id="nginxb" d="M93.45,2.58l19.09,19" style="fill:none;stroke:#090;stroke-linecap:round;stroke-linejoin:round;stroke-width:5px"/><path id="nginxb-2" d="M112.56,2.58l-19.08,19" style="fill:none;stroke:#090;stroke-linecap:round;stroke-linejoin:round;stroke-width:5px"/><path d="M58.45,24.08A2.6,2.6,0,0,1,56,21.55V11.08h5V21.55A2.59,2.59,0,0,1,58.45,24.08Z" style="fill:#090"/></svg>