<svg xmlns="http://www.w3.org/2000/svg" viewBox="0 0 107 94"><desc>PostgreSQL Logo</desc><path d="M11.2,78.9H6.54V74.64h4.92c1.8,0,2.7.72,2.7,2.17s-1,2.09-2.95,2.09m3.35-4.3a4.13,4.13,0,0,0-2.68-.78l-6.69,0v10.2H6.54V79.72h5a4.94,4.94,0,0,0,2.95-.78,2.54,2.54,0,0,0,1.07-2.17,2.63,2.63,0,0,0-1-2.16Zm8.72,7.3a2,2,0,0,1-.64.86,4,4,0,0,1-2.76.8,3.78,3.78,0,0,1-2.57-.78,2.61,2.61,0,0,1-.9-2.08,3.07,3.07,0,0,1,.23-1.21,2.58,2.58,0,0,1,.68-.89,3.91,3.91,0,0,1,2.56-.77c2.4,0,3.61,1,3.61,2.87a3.12,3.12,0,0,1-.21,1.19m.25-3.76a5.61,5.61,0,0,0-3.65-1,5.34,5.34,0,0,0-3.52,1,3.16,3.16,0,0,0-1.13,2.54,3.19,3.19,0,0,0,1.16,2.57,4.17,4.17,0,0,0,1.5.76,7.35,7.35,0,0,0,2,.23,5.76,5.76,0,0,0,3.66-1,3.48,3.48,0,0,0,0-5.12Zm10.18,4.06q0,2.06-4.06,2.06a13.46,13.46,0,0,1-2.09-.14,3.84,3.84,0,0,1-1.38-.48,1.79,1.79,0,0,1-.65-.66,2.78,2.78,0,0,1-.32-1h1.26a1.27,1.27,0,0,0,.67,1.19,4.87,4.87,0,0,0,2.51.46c1.89,0,2.84-.43,2.84-1.3,0-.5-.32-.85-1-1-.13,0-.89-.13-2.3-.3l-2.62-.42a1.48,1.48,0,0,1-1.12-1.46,1.63,1.63,0,0,1,1-1.53,5.41,5.41,0,0,1,1.24-.32,10.86,10.86,0,0,1,1.72-.12c2.61,0,3.9.75,3.9,2.23h-1.2c0-1-.92-1.56-2.75-1.56a5.3,5.3,0,0,0-2.09.31,1,1,0,0,0-.68,1c0,.4.3.7.92.88a19.25,19.25,0,0,0,2.5.33,9.37,9.37,0,0,1,2.4.41,1.54,1.54,0,0,1,1.24,1.48Zm4.95,1.86-.51.06-.32,0a3.59,3.59,0,0,1-1.78-.33,1.2,1.2,0,0,1-.54-1.13V78H34v-.69H35.5V75.15h1.15v2.19h2V78h-2v4.52a.79.79,0,0,0,.29.7,2.07,2.07,0,0,0,1.06.19,1,1,0,0,0,.24,0l.4-.09v.7Zm8-1.54a3.4,3.4,0,0,1-1.08.53,4.47,4.47,0,0,1-1.38.19q-3.61,0-3.61-2.7a2.33,2.33,0,0,1,.93-2,4.18,4.18,0,0,1,2.59-.7,3.93,3.93,0,0,1,2.56.72,2.35,2.35,0,0,1,.88,1.92,2.42,2.42,0,0,1-.9,2m2-5.16H47.5v1.15a6.86,6.86,0,0,0-1.09-.88,5.58,5.58,0,0,0-2.49-.48,5.39,5.39,0,0,0-3.43.93,2.91,2.91,0,0,0-1.12,2.47A3.53,3.53,0,0,0,39.64,82,2.82,2.82,0,0,0,40.47,83a5.47,5.47,0,0,0,3.35.9,4.54,4.54,0,0,0,3.68-1.3v1.2a2.09,2.09,0,0,1-.8,1.76,4.21,4.21,0,0,1-2.6.62,5.1,5.1,0,0,1-2.42-.42,1.82,1.82,0,0,1-.75-1.13H39.75a2.19,2.19,0,0,0,1,1.62,6.94,6.94,0,0,0,3.34.59c3,0,4.5-1,4.5-3V77.36Zm6.21.68a6.22,6.22,0,0,0-1-.08,2.5,2.5,0,0,0-2.83,2.82v3.27H49.93V77.36h1.15v1.19h.06A2.1,2.1,0,0,1,52,77.5a4.56,4.56,0,0,1,2.05-.36h.77V78Zm1.07,2.23a2.87,2.87,0,0,1,1-1.76A3.55,3.55,0,0,1,58,78a5,5,0,0,1,1.4-.18,4,4,0,0,1,2.5.76,2.21,2.21,0,0,1,1,1.73h-7M63,78.21a3.62,3.62,0,0,0-1.5-.81,7.24,7.24,0,0,0-2.08-.27,5.64,5.64,0,0,0-3.47.94,3.07,3.07,0,0,0-1.23,2.57,3.14,3.14,0,0,0,1.18,2.57,5.57,5.57,0,0,0,3.61,1.05,6.71,6.71,0,0,0,1.72-.2,5.44,5.44,0,0,0,1.38-.54,3,3,0,0,0,1.32-1.67H62.69c-.42,1.15-1.48,1.72-3.18,1.72a4.07,4.07,0,0,1-2.76-.84,2.36,2.36,0,0,1-.83-1.87h8.2A3.36,3.36,0,0,0,63,78.2Z" style="fill:#231f20"/><path d="M76.26,81.31q0,3-5.3,3a8.25,8.25,0,0,1-4.63-1,3,3,0,0,1-1.19-2.58h1.42c0,1.86,1.47,2.78,4.4,2.78A6.29,6.29,0,0,0,74,82.89a1.72,1.72,0,0,0,.79-1.57,1.52,1.52,0,0,0-1.08-1.49,21,21,0,0,0-3-.58,16.24,16.24,0,0,1-3.89-.83,2.14,2.14,0,0,1-1.3-2.08,2.21,2.21,0,0,1,1.09-2,8.16,8.16,0,0,1,4.06-.73q5.19,0,5.19,3.12H74.43q0-2.34-3.85-2.34a6.45,6.45,0,0,0-2.83.47,1.63,1.63,0,0,0-.84,1.48A1.45,1.45,0,0,0,68,77.74a20.84,20.84,0,0,0,3.4.67,12.21,12.21,0,0,1,3.58.85,2.06,2.06,0,0,1,1.27,2Zm11.54,1a6.12,6.12,0,0,1-1.8.87,8.22,8.22,0,0,1-2.25.3,6.44,6.44,0,0,1-4.1-1.24,4.37,4.37,0,0,1,0-6.68,6.54,6.54,0,0,1,4.11-1.2,6.11,6.11,0,0,1,4.08,1.26A3.83,3.83,0,0,1,89,77.06a4.31,4.31,0,0,1,.38,1.87,4.09,4.09,0,0,1-1.57,3.39m.75.67a4.59,4.59,0,0,0,1.65-1.72,5,5,0,0,0,.53-2.33A4.7,4.7,0,0,0,89,75.13,6.17,6.17,0,0,0,86.75,74a10.88,10.88,0,0,0-3-.38A8.25,8.25,0,0,0,78.6,75a5,5,0,0,0,0,7.8,8.15,8.15,0,0,0,5.15,1.48A15,15,0,0,0,86,84.14a6.23,6.23,0,0,0,1.62-.48L89.72,85l.88-.73-2-1.25Zm12.81,1H91.66V73.83l1.33,0v9.37h8.39Z" style="fill:#367faf"/><path d="M67.55,49.65c.38-3.18.26-3.65,2.64-3.13l.6,0a13.82,13.82,0,0,0,5.61-.94c3-1.4,4.81-3.74,1.83-3.13-6.79,1.4-7.25-.9-7.25-.9C78.14,31,81.14,17.47,78.56,14.16c-7.06-9-19.27-4.75-19.47-4.64l-.07,0a24.21,24.21,0,0,0-4.53-.48,11.2,11.2,0,0,0-7.17,2.15s-21.78-9-20.76,11.29c.21,4.3,6.17,32.61,13.28,24.06,2.6-3.13,5.11-5.77,5.11-5.77a6.6,6.6,0,0,0,4.31,1.1l.12-.1a4.58,4.58,0,0,0,0,1.21c-1.83,2-1.3,2.41-5,3.16s-1.53,2.13-.11,2.48a7.54,7.54,0,0,0,8.41-2.73l-.11.43c.72.58.67,4.13.77,6.67a23.41,23.41,0,0,0,.8,6.32c.53,1.4,1.13,5,5.94,4,4-.86,7.1-2.1,7.39-13.64" style="fill:#231f20;stroke:#231f20;stroke-width:5.046000003814697px"/><path d="M78.23,42.5c-6.79,1.4-7.25-.9-7.25-.9C78.15,31,81.14,17.47,78.56,14.16c-7.06-9-19.27-4.75-19.47-4.64l-.07,0a24.21,24.21,0,0,0-4.53-.48,11.2,11.2,0,0,0-7.17,2.15s-21.78-9-20.77,11.29c.22,4.3,6.18,32.61,13.29,24.06,2.6-3.13,5.1-5.77,5.1-5.77a6.6,6.6,0,0,0,4.31,1.1l.12-.1A4.55,4.55,0,0,0,49.42,43c-1.83,2-1.3,2.41-5,3.16s-1.53,2.13-.11,2.48a7.54,7.54,0,0,0,8.41-2.73l-.11.43c.72.58,1.22,3.74,1.14,6.61s-.14,4.84.42,6.38,1.13,5,5.95,4c4-.87,6.1-3.1,6.39-6.83.21-2.65.67-2.25.7-4.62l.38-1.12c.43-3.59.06-4.75,2.54-4.21l.6,0a13.84,13.84,0,0,0,5.62-.94c3-1.4,4.8-3.74,1.83-3.13Z" style="fill:#417ba2"/><path d="M53.06,44.56c-.19,6.68,0,13.4.7,15s2.05,4.81,6.87,3.78c4-.86,5.49-2.53,6.12-6.21.47-2.7,1.37-10.24,1.49-11.78M47.3,11.06S25.5,2.16,26.52,22.41c.21,4.3,6.17,32.62,13.3,24.07,2.6-3.13,5-5.58,5-5.58M59.06,9.44c-.75.23,12.13-4.71,19.45,4.64,2.58,3.31-.4,16.81-7.58,27.44" style="fill:none;stroke:#fff;stroke-linecap:round;stroke-linejoin:round;stroke-width:1.6820000410079956px"/><path d="M70.93,41.52s.47,2.3,7.25.9c3-.62,1.19,1.72-1.83,3.12-2.47,1.15-8,1.45-8.11-.14-.24-4.1,2.92-2.85,2.69-3.88s-1.62-1.83-2.55-4.09c-.82-2-11.17-17.12,2.87-14.87C71.77,22.45,67.59,9.2,54.44,9s-12.7,16.16-12.7,16.16" style="fill:none;stroke:#fff;stroke-linecap:round;stroke-linejoin:bevel;stroke-width:1.6820000410079956px"/><path d="M49.38,42.92c-1.83,2-1.29,2.41-5,3.16s-1.53,2.13-.11,2.48a7.53,7.53,0,0,0,8.4-2.73,2.51,2.51,0,0,0-1.13-3.45A1.67,1.67,0,0,0,49.38,42.92Z" style="fill:none;stroke:#fff;stroke-linejoin:round;stroke-width:1.6820000410079956px"/><path d="M49.26,42.89c-.18-1.21.4-2.64,1-4.31.93-2.52,3.09-5,1.36-13-1.28-5.95-9.9-1.24-9.91-.43a39.35,39.35,0,0,1-.14,7.9c-.7,5,3.17,9.19,7.62,8.76" style="fill:none;stroke:#fff;stroke-linecap:round;stroke-linejoin:round;stroke-width:1.6820000410079956px"/><path d="M47.21,25c0,.28.51,1,1.21,1.11a1.3,1.3,0,0,0,1.35-.75c0-.27-.5-.58-1.21-.68s-1.31.05-1.35.32Z" style="fill:#fff;stroke:#fff;stroke-width:0.5609999895095825px"/><path d="M68.72,24.46c0,.28-.5,1-1.21,1.11a1.29,1.29,0,0,1-1.34-.75c0-.27.5-.58,1.21-.68s1.31.05,1.35.32Z" style="fill:#fff;stroke:#fff;stroke-width:0.2800000011920929px"/><path d="M71.25,22.56c.12,2.16-.46,3.63-.54,5.92-.11,3.34,1.6,7.17-1,11" style="fill:none;stroke:#fff;stroke-linecap:round;stroke-linejoin:round;stroke-width:1.6820000410079956px"/></svg>