<svg xmlns="http://www.w3.org/2000/svg" xmlns:xlink="http://www.w3.org/1999/xlink" viewBox="0 0 75 75"><desc>Amazon Route 53 Logo</desc><defs><linearGradient id="linear-gradient" x1="-300.42" y1="145.75" x2="-150.42" y2="145.75" gradientTransform="matrix(0.71, -0.71, -0.71, -0.71, 299.96, -18.84)" gradientUnits="userSpaceOnUse"><stop offset="0" stop-color="#4d27a8"/><stop offset="1" stop-color="#a166ff"/></linearGradient></defs><g id="Reference"><rect id="Purple_Gradient" data-name="Purple Gradient" width="75" height="75" style="fill:url(#linear-gradient)"/><g id="Icon_Test" data-name="Icon Test"><path d="M27.29,42.94a12.78,12.78,0,0,0,3.92.74A3.59,3.59,0,0,0,33.62,43a2.56,2.56,0,0,0,.83-2,2.62,2.62,0,0,0-.78-2.12,4,4,0,0,0-2.56-.66,31.06,31.06,0,0,0-3.2.2V37l.39-6.17h7.53V32.5H30l-.27,4.19a11.21,11.21,0,0,1,2-.2,4.89,4.89,0,0,1,3.49,1.17,4.22,4.22,0,0,1,1.25,3.24A4.07,4.07,0,0,1,35,44.17a5.73,5.73,0,0,1-3.86,1.25,9.54,9.54,0,0,1-3.94-.83Z" style="fill:#fff"/><path d="M43.63,36.94H44A4.65,4.65,0,0,1,47.28,38a3.84,3.84,0,0,1,1.2,3A4,4,0,0,1,47,44.21a6,6,0,0,1-3.91,1.21,9.56,9.56,0,0,1-3.83-.83V42.94a12.22,12.22,0,0,0,3.83.74,3.68,3.68,0,0,0,2.42-.7,2.43,2.43,0,0,0,.84-2q0-2.49-3.15-2.49a19,19,0,0,0-2,.1V37.23l4.33-4.73H39.48V30.81h8.4v1.63Z" style="fill:#fff"/><path d="M37.5,56.5a1,1,0,0,1-.5-.14,33.12,33.12,0,0,0-10.48-4c-2.11-.38-9-2-9-7,0-2.26.87-3.76,2-5.66a15.66,15.66,0,0,0,2.71-8.21,14.6,14.6,0,0,0-2.38-7.93,1,1,0,0,1,.07-1.17l1.6-2a1,1,0,0,1,1.27-.24A13.69,13.69,0,0,0,29.54,22a12.28,12.28,0,0,0,7.38-2.32,1,1,0,0,1,1.16,0A12.28,12.28,0,0,0,45.46,22a13.67,13.67,0,0,0,6.77-1.86,1,1,0,0,1,1.27.24l1.6,2a1,1,0,0,1,.07,1.17,14.6,14.6,0,0,0-2.38,7.93c0,3.55,1.44,6,2.7,8.21,1.11,1.9,2,3.4,2,5.66,0,5-6.88,6.65-9,7a33.12,33.12,0,0,0-10.48,4A.92.92,0,0,1,37.5,56.5ZM21.9,23a16.39,16.39,0,0,1,2.31,8.38,17.14,17.14,0,0,1-3,9.21c-1,1.77-1.7,2.94-1.7,4.66,0,3.56,6.11,4.84,7.34,5.06a34.63,34.63,0,0,1,10.63,4,34.63,34.63,0,0,1,10.63-4c1.23-.22,7.34-1.5,7.34-5.06,0-1.72-.68-2.89-1.7-4.66-1.33-2.28-3-5.12-3-9.21A16.5,16.5,0,0,1,53.1,23l-.63-.78a15.34,15.34,0,0,1-7,1.72,14.37,14.37,0,0,1-8-2.3,14.37,14.37,0,0,1-8,2.3,15.34,15.34,0,0,1-7-1.72Z" style="fill:#fff"/><path d="M37.5,62.5a1,1,0,0,1-.63-.22,29.87,29.87,0,0,0-11.25-5c-8.22-1.48-13.13-6-13.13-12a15.27,15.27,0,0,1,2.65-8.19c1.09-1.87,2-3.49,2-5.68a10.77,10.77,0,0,0-3.64-7.63,1,1,0,0,1-.21-1.4l.07-.08c0-.07,5.87-7.11,7.2-8.94a1,1,0,0,1,.78-.42,1,1,0,0,1,.82.32,10.34,10.34,0,0,0,7.35,3.66c2.79,0,5-1.24,7.13-4a1.08,1.08,0,0,1,1.52-.14.93.93,0,0,1,.14.14c2.14,2.8,4.34,4,7.13,4a10.34,10.34,0,0,0,7.35-3.66,1,1,0,0,1,.82-.32,1,1,0,0,1,.78.42c1.33,1.83,7.15,8.87,7.2,8.94a1,1,0,0,1,.24.77,1.09,1.09,0,0,1-.38.71,10.77,10.77,0,0,0-3.64,7.63c0,2.19.94,3.81,2,5.68a15.27,15.27,0,0,1,2.65,8.19c0,6-4.91,10.52-13.13,12a29.74,29.74,0,0,0-11.24,5A1,1,0,0,1,37.5,62.5ZM15.61,22.89a12.54,12.54,0,0,1,3.64,8.53c0,2.75-1.17,4.77-2.3,6.72-1.22,2.11-2.38,4.09-2.38,7.15,0,7.32,8.74,9.46,11.42,9.94A31.53,31.53,0,0,1,37.5,60.17,31.41,31.41,0,0,1,49,55.23c2.68-.48,11.42-2.62,11.42-9.94,0-3.06-1.16-5-2.38-7.15s-2.3-4-2.3-6.72a12.54,12.54,0,0,1,3.64-8.53c-1.31-1.59-4.34-5.28-5.93-7.33a11.91,11.91,0,0,1-8,3.46,10.14,10.14,0,0,1-8-3.86,10.14,10.14,0,0,1-8,3.86,11.91,11.91,0,0,1-8-3.46C20,17.61,16.92,21.3,15.61,22.89Z" style="fill:#fff"/></g></g></svg>