<svg id="Layer_1" data-name="Layer 1" xmlns="http://www.w3.org/2000/svg" viewBox="0 0 1000 1000"><path d="M173.65,845.77H155.3a4,4,0,0,0-3.13,1.55,59.29,59.29,0,1,1,0-66.36,3.93,3.93,0,0,0,3.12,1.55h18.35a3.92,3.92,0,0,0,3.53-5.73,83,83,0,1,0,0,74.72,3.92,3.92,0,0,0-3.53-5.73ZM229,703.44a15.82,15.82,0,1,1-15.82-15.82A15.81,15.81,0,0,1,229,703.44Zm-4,185.82V735.07H201.33V889.26a4,4,0,0,0,4,4H221.1A4,4,0,0,0,225.05,889.26Zm102.86-158c-23.93,1.13-43,12.56-55.41,30V739a4,4,0,0,0-3.95-3.94H252.73a4,4,0,0,0-3.95,3.94h0V889.26a4,4,0,0,0,3.95,4h15.82a4,4,0,0,0,3.95-4V814.14A59.31,59.31,0,0,1,327.85,755a4,4,0,0,0,4-4V735.16A4,4,0,0,0,327.91,731.21ZM485.45,845.77H467.1a3.9,3.9,0,0,0-3.12,1.55A59.3,59.3,0,1,1,464,781a3.93,3.93,0,0,0,3.12,1.55h18.35a4,4,0,0,0,4-4,3.84,3.84,0,0,0-.44-1.78,83,83,0,1,0,0,74.72,3.84,3.84,0,0,0,.44-1.78A4,4,0,0,0,485.45,845.77Zm47.45-162.1H517.09a4,4,0,0,0-4,4V889.26a4,4,0,0,0,4,4H532.9a4,4,0,0,0,4-4V687.62A4,4,0,0,0,532.9,683.67Zm110.71,47.44A83,83,0,1,0,717.75,851.5a3.94,3.94,0,0,0-3.53-5.73H695.87a3.9,3.9,0,0,0-3.17,1.63,59.29,59.29,0,0,1-107.86-25.35H722.57a4,4,0,0,0,3.95-3.76c.07-1.37.11-2.76.11-4.15A83,83,0,0,0,643.61,731.11Zm-57.17,67.21a59.31,59.31,0,0,1,114.32,0Zm369.84-118.6A23.72,23.72,0,1,0,980,703.44,23.72,23.72,0,0,0,956.28,679.72Zm19.77,55.35V889.26a4,4,0,0,1-3.95,4H940.47a4,4,0,0,1-4-4V735.07ZM833.38,897.17a83,83,0,0,0,80.44-62.46,4.27,4.27,0,0,0,.1-.8A4,4,0,0,0,910,830H876.5a3.92,3.92,0,0,0-3.58,2.31h0a43.49,43.49,0,1,1,0-36.24h0a3.94,3.94,0,0,0,3.58,2.31H910a4,4,0,0,0,3.95-4,4.17,4.17,0,0,0-.1-.79,83,83,0,1,0-80.44,103.59Z" style="fill:#171717"/><path d="M436,355.58a60.18,60.18,0,1,1,60.19,60.18A60.19,60.19,0,0,1,436,355.58Zm60.19-252.75c-118,0-217,80.84-244.86,190.12a10.55,10.55,0,0,0-.32,2.45,12,12,0,0,0,12,12H365a12.06,12.06,0,0,0,10.92-7h0a132.41,132.41,0,1,1,0,110.32v0a12,12,0,0,0-10.92-7H263.08a12,12,0,0,0-12,12,11.26,11.26,0,0,0,.3,2.4c27.86,109.3,126.87,190.16,244.88,190.16C635.79,608.32,749,495.15,749,355.58S635.79,102.83,496.22,102.83Z" style="fill:#171717"/></svg>