<svg id="Layer_1" data-name="Layer 1" xmlns="http://www.w3.org/2000/svg" viewBox="0 0 2500 1250"><path d="M0,0H2500V1250H0Z" style="fill-rule:evenodd"/><path d="M673.8,479.4l-.6-168.1H579.4l.6,168.1,46.9,64.4ZM580,767.5V936.2h93.8V767.5l-46.9-64.4Z" style="fill:#fff;fill-rule:evenodd"/><path d="M673.8,767.5l98.8,136.3,75.6-55L749.4,712.5l-75.6-24.4ZM580,479.4,480.6,343.1l-75.6,55,98.8,136.2L580,558.7Z" style="fill:#00f2e6;fill-rule:evenodd"/><path d="M503.8,534.4l-160-51.9L315,571.2l160,52.5,75.6-25ZM702.5,648.1l46.9,64.4,160,51.9,28.8-88.7-160-51.9Z" style="fill:#00b9f1;fill-rule:evenodd"/><path d="M778.1,623.8l160-52.5-28.8-88.7-160,51.9-46.9,64.4Zm-303.1,0L315,675.7l28.8,88.7,160-51.9,46.9-64.4Z" style="fill:#d63aff;fill-rule:evenodd"/><path d="M503.8,712.5,405,848.8l75.6,55L580,767.5V688.1ZM749.4,534.4l98.8-136.3-75.6-55L673.8,479.3v79.4Z" style="fill:#fb015b;fill-rule:evenodd"/><path d="M1288.1,470.6V689.3c0,48.1-39.4,87.5-87.5,87.5V733a43.53,43.53,0,0,0,43.8-43.8V470.6Zm798.8,43.8h98.7V470.7H1945v43.7h98.1V776.9h43.8Zm-273.8-43.8V689.3a43.8,43.8,0,1,1-87.6,0V558.1c0-48.1-39.4-87.5-87.5-87.5s-87.5,39.4-87.5,87.5V689.4a43.8,43.8,0,1,1-87.6,0V470.6h-43.8V689.3c0,48.1,39.4,87.5,87.5,87.5s87.5-39.4,87.5-87.5V558.1a43.8,43.8,0,1,1,87.6,0V689.4c0,48.1,39.4,87.5,87.5,87.5s87.5-39.4,87.5-87.5V470.6Z" style="fill:#fff;fill-rule:evenodd"/></svg>